<svg width="138" height="32" viewBox="0 0 138 32" fill="none" xmlns="http://www.w3.org/2000/svg">
<g clip-path="url(#clip0_108_1981)">
<path d="M43.5524 23.4471C42.1414 23.4471 40.9573 23.1336 39.996 22.5023C39.0347 21.8711 38.358 21.017 37.9661 19.9319L40.3632 18.5291C40.9202 19.9773 42.0094 20.7035 43.635 20.7035C44.4189 20.7035 44.9965 20.5632 45.3637 20.2785C45.7309 19.9938 45.9124 19.6349 45.9124 19.2017C45.9124 18.7024 45.6896 18.3105 45.2399 18.034C44.7943 17.7576 43.9939 17.4564 42.8428 17.1305C42.2074 16.9407 41.6669 16.7509 41.2255 16.5611C40.784 16.3713 40.3467 16.1197 39.9052 15.7978C39.4637 15.4801 39.1296 15.0758 38.8985 14.589C38.6675 14.1021 38.5519 13.5328 38.5519 12.8809C38.5519 11.5936 39.0099 10.5663 39.9217 9.80299C40.8377 9.03971 41.9351 8.65601 43.2224 8.65601C44.3735 8.65601 45.3843 8.93657 46.259 9.49768C47.1337 10.0588 47.8144 10.8427 48.3013 11.8453L45.9454 13.2068C45.3761 11.9897 44.4684 11.3791 43.2224 11.3791C42.6406 11.3791 42.1827 11.5111 41.8526 11.7751C41.5225 12.0392 41.3534 12.3816 41.3534 12.8025C41.3534 13.2481 41.539 13.6111 41.9104 13.8876C42.2817 14.164 42.9955 14.4652 44.0558 14.7911C44.489 14.9273 44.8191 15.0304 45.0419 15.1047C45.2647 15.179 45.57 15.2945 45.9578 15.4513C46.3456 15.608 46.6427 15.7525 46.8531 15.8886C47.0635 16.0248 47.3028 16.2063 47.5751 16.4373C47.8474 16.6684 48.0537 16.9036 48.194 17.147C48.3343 17.3904 48.4581 17.6875 48.5612 18.0299C48.6644 18.3765 48.7139 18.7519 48.7139 19.1563C48.7139 20.4683 48.2353 21.5121 47.2822 22.2837C46.3291 23.0552 45.0831 23.443 43.5524 23.443V23.4471Z" fill="white"/>
<path d="M57.9929 13.0046H60.6128V27.2264H57.9929V21.9618C57.2214 22.952 56.1239 23.4471 54.7005 23.4471C53.2771 23.4471 52.1631 22.9273 51.1935 21.8917C50.2239 20.8561 49.7412 19.5854 49.7412 18.0835C49.7412 16.5817 50.2239 15.311 51.1935 14.2754C52.1631 13.2398 53.3307 12.72 54.7005 12.72C56.0702 12.72 57.2214 13.2151 57.9929 14.2053V13.0046ZM53.1657 20.1465C53.702 20.6828 54.3745 20.951 55.1873 20.951C56.0001 20.951 56.6685 20.6828 57.2007 20.1465C57.7288 19.6101 57.9929 18.9252 57.9929 18.0835C57.9929 17.2419 57.7288 16.557 57.2007 16.0206C56.6726 15.4843 56.0001 15.2161 55.1873 15.2161C54.3745 15.2161 53.702 15.4843 53.1657 16.0206C52.6293 16.557 52.3611 17.2419 52.3611 18.0835C52.3611 18.9252 52.6293 19.6101 53.1657 20.1465Z" fill="white"/>
<path d="M69.3058 13.0046H71.9257V23.1625H69.3058V22.0237C68.6704 22.9727 67.6596 23.4471 66.2775 23.4471C65.1676 23.4471 64.2475 23.0758 63.5255 22.329C62.7994 21.5823 62.4404 20.5549 62.4404 19.2388V13.0005H65.0603V18.9128C65.0603 19.5895 65.2419 20.1093 65.6091 20.4683C65.9763 20.8272 66.4631 21.0088 67.0738 21.0088C67.7504 21.0088 68.2909 20.7984 68.6993 20.3775C69.1037 19.9567 69.31 19.3296 69.31 18.4879V13.0005L69.3058 13.0046Z" fill="white"/>
<path d="M81.2173 13.0046H83.8372V23.1625H81.2173V21.9618C80.4333 22.952 79.3276 23.4471 77.9042 23.4471C76.4808 23.4471 75.3874 22.9273 74.4179 21.8917C73.4483 20.8561 72.9656 19.5854 72.9656 18.0835C72.9656 16.5817 73.4483 15.311 74.4179 14.2754C75.3874 13.2398 76.5468 12.72 77.9042 12.72C79.3276 12.72 80.4292 13.2151 81.2173 14.2053V13.0046ZM76.3818 20.1465C76.9099 20.6828 77.5824 20.951 78.3952 20.951C79.208 20.951 79.8805 20.6828 80.4168 20.1465C80.9532 19.6101 81.2214 18.9252 81.2214 18.0835C81.2214 17.2419 80.9532 16.557 80.4168 16.0206C79.8805 15.4843 79.208 15.2161 78.3952 15.2161C77.5824 15.2161 76.9099 15.4843 76.3818 16.0206C75.8537 16.557 75.5896 17.2419 75.5896 18.0835C75.5896 18.9252 75.8537 19.6101 76.3818 20.1465Z" fill="white"/>
<path d="M88.8377 14.754C89.0811 14.1021 89.4854 13.6153 90.0466 13.2893C90.6077 12.9634 91.2348 12.8025 91.9279 12.8025V15.7277C91.1275 15.6328 90.4138 15.7937 89.7825 16.2145C89.1512 16.6354 88.8377 17.3326 88.8377 18.3063V23.1625H86.2178V13.0046H88.8377V14.754Z" fill="white"/>
<path d="M95.2781 19.1604C95.6288 20.4353 96.586 21.0707 98.1414 21.0707C99.144 21.0707 99.9032 20.7323 100.419 20.0557L102.531 21.2728C101.529 22.721 100.052 23.4471 98.1002 23.4471C96.421 23.4471 95.0718 22.9397 94.0569 21.9247C93.0419 20.9097 92.5344 19.6266 92.5344 18.0835C92.5344 16.5405 93.0336 15.278 94.0362 14.2548C95.0388 13.2316 96.3261 12.72 97.898 12.72C99.3874 12.72 100.617 13.2357 101.587 14.263C102.556 15.2945 103.039 16.5652 103.039 18.0835C103.039 18.4219 103.006 18.7808 102.936 19.1604H95.274H95.2781ZM95.241 17.1305H100.423C100.274 16.4415 99.9651 15.9257 99.4988 15.5874C99.0326 15.2491 98.5004 15.0799 97.9021 15.0799C97.1966 15.0799 96.6149 15.2615 96.1528 15.6204C95.6907 15.9794 95.3854 16.4827 95.2368 17.1346L95.241 17.1305Z" fill="white"/>
<path d="M110.783 12.72C112.153 12.72 113.32 13.2398 114.29 14.2754C115.259 15.311 115.742 16.5817 115.742 18.0836C115.742 19.5854 115.259 20.8561 114.29 21.8917C113.32 22.9273 112.153 23.4471 110.783 23.4471C109.413 23.4471 108.262 22.952 107.491 21.9618V23.1625H104.871V8.94069H107.491V14.2053C108.262 13.2151 109.36 12.72 110.783 12.72ZM108.283 20.1465C108.811 20.6828 109.483 20.951 110.296 20.951C111.109 20.951 111.781 20.6828 112.318 20.1465C112.854 19.6101 113.122 18.9252 113.122 18.0836C113.122 17.2419 112.854 16.557 112.318 16.0206C111.781 15.4843 111.109 15.2161 110.296 15.2161C109.483 15.2161 108.811 15.4843 108.283 16.0206C107.755 16.557 107.491 17.2419 107.491 18.0836C107.491 18.9252 107.755 19.6101 108.283 20.1465Z" fill="white"/>
<path d="M125.834 21.8958C124.79 22.9314 123.519 23.4513 122.013 23.4513C120.508 23.4513 119.241 22.9314 118.205 21.8958C117.17 20.8602 116.65 19.5895 116.65 18.0877C116.65 16.5859 117.17 15.3151 118.205 14.2795C119.241 13.2439 120.512 12.7241 122.013 12.7241C123.515 12.7241 124.79 13.2439 125.834 14.2795C126.878 15.3151 127.398 16.5859 127.398 18.0877C127.398 19.5895 126.878 20.8602 125.834 21.8958ZM120.054 20.097C120.574 20.6251 121.23 20.8891 122.013 20.8891C122.797 20.8891 123.458 20.6251 123.986 20.097C124.514 19.5689 124.778 18.8963 124.778 18.0836C124.778 17.2708 124.514 16.5982 123.986 16.0701C123.458 15.542 122.802 15.278 122.013 15.278C121.225 15.278 120.574 15.542 120.054 16.0701C119.534 16.5982 119.27 17.2708 119.27 18.0836C119.27 18.8963 119.53 19.5689 120.054 20.097Z" fill="white"/>
<path d="M137.902 23.1625H134.874L132.671 20.0846L130.467 23.1625H127.439L131.165 17.9763L127.604 13.0046H130.632L132.683 15.868L134.738 13.0046H137.745L134.189 17.9722L137.906 23.1666L137.902 23.1625Z" fill="white"/>
<path d="M26.1702 7.11295L25.7865 6.89015L24.6313 6.22177L23.0924 5.33471L21.5534 4.44766L20.456 3.81228L20.0145 3.55647L18.4756 2.66942L16.9366 1.77824L15.3977 0.891183L15.1254 0.734401L13.8587 0.0041275L12.5921 0.734401L12.3198 0.891183L10.7809 1.77824L9.24193 2.66942L7.70299 3.55647L7.26152 3.81228L6.16405 4.44766L4.62511 5.33471L3.08618 6.22177L1.93094 6.89015L1.54724 7.11295L0.00830078 8V24L1.54724 24.8871L2.37241 25.3657L3.08618 25.7782L4.62511 26.6653L6.16405 27.5565L7.70299 28.4435L9.24193 29.3306L10.7809 30.2176L12.3198 31.1047L13.0336 31.5173L13.8587 31.9918L14.6839 31.5173L15.3977 31.1047L16.9366 30.2176L18.4756 29.3306L20.0145 28.4435L21.5534 27.5565L24.6313 25.7782L25.3451 25.3657L26.1702 24.8871L27.7092 24V8L26.1702 7.11295ZM3.07792 9.77824L4.61686 8.89118L6.1558 8.00413L7.69474 7.11707L8.07844 6.89428L9.2378 6.22589L10.7767 5.33471L12.3157 4.44766V13.3801L10.7767 14.2672L9.7329 14.8695L9.2378 15.1542L7.69886 16.0413L4.62099 17.8195L4.40232 17.9474L3.08205 18.7107V9.77824H3.07792ZM24.5199 22.2837L23.0924 23.1088L21.5534 24L20.0145 24.8871L19.1893 25.3615L18.4756 25.7741L15.3977 27.5523L13.8587 28.4394L12.3198 27.5523L9.24193 25.7741L8.52816 25.3615L7.70299 24.8829L6.16405 23.9959L4.62511 23.1047L3.19757 22.2795L3.12331 22.2341L4.62511 21.3677L5.23161 21.0211L6.16818 20.4807L7.70711 19.5936L9.24605 18.7066L10.5663 17.9433L10.7891 17.8154L13.867 16.0371L16.9449 17.8154L17.1677 17.9433L18.4879 18.7066L20.0269 19.5936L21.5658 20.4807L22.5024 21.0211L23.1089 21.3677L24.6107 22.2341L24.5364 22.2795L24.5199 22.2837ZM24.6313 18.7066L23.311 17.9433L23.0882 17.8154L21.5493 16.9283L20.0104 16.0413L18.4714 15.1542L17.9763 14.8695L16.9325 14.2672L15.3936 13.3801V4.44353L16.9325 5.33058L18.4714 6.22177L19.6308 6.89015L20.0145 7.11295L21.5534 8L23.0924 8.88706L24.6313 9.77411V18.7066Z" fill="white"/>
</g>
<defs>
<clipPath id="clip0_108_1981">
<rect width="137.902" height="32" fill="white"/>
</clipPath>
</defs>
</svg>
