<svg width="28" height="32" viewBox="0 0 28 32" fill="none" xmlns="http://www.w3.org/2000/svg">
<path d="M26.1702 7.11297L25.7865 6.89017L24.6313 6.22179L23.0924 5.33473L21.5534 4.44768L20.456 3.8123L20.0145 3.5565L18.4756 2.66944L16.9366 1.77826L15.3977 0.891206L15.1254 0.734424L13.8587 0.00415039L12.5921 0.734424L12.3198 0.891206L10.7809 1.77826L9.24193 2.66944L7.70299 3.5565L7.26152 3.8123L6.16405 4.44768L4.62511 5.33473L3.08618 6.22179L1.93094 6.89017L1.54724 7.11297L0.00830078 8.00002V24L1.54724 24.8871L2.37241 25.3657L3.08618 25.7783L4.62511 26.6653L6.16405 27.5565L7.70299 28.4436L9.24193 29.3306L10.7809 30.2177L12.3198 31.1047L13.0336 31.5173L13.8587 31.9918L14.6839 31.5173L15.3977 31.1047L16.9366 30.2177L18.4756 29.3306L20.0145 28.4436L21.5534 27.5565L24.6313 25.7783L25.3451 25.3657L26.1702 24.8871L27.7092 24V8.00002L26.1702 7.11297ZM3.07792 9.77826L4.61686 8.89121L6.1558 8.00415L7.69474 7.1171L8.07844 6.8943L9.2378 6.22591L10.7767 5.33473L12.3157 4.44768V13.3801L10.7767 14.2672L9.7329 14.8695L9.2378 15.1542L7.69886 16.0413L4.62099 17.8195L4.40232 17.9474L3.08205 18.7107V9.77826H3.07792ZM24.5199 22.2837L23.0924 23.1088L21.5534 24L20.0145 24.8871L19.1893 25.3616L18.4756 25.7741L15.3977 27.5524L13.8587 28.4394L12.3198 27.5524L9.24193 25.7741L8.52816 25.3616L7.70299 24.883L6.16405 23.9959L4.62511 23.1047L3.19757 22.2796L3.12331 22.2342L4.62511 21.3677L5.23161 21.0212L6.16818 20.4807L7.70711 19.5936L9.24605 18.7066L10.5663 17.9433L10.7891 17.8154L13.867 16.0372L16.9449 17.8154L17.1677 17.9433L18.4879 18.7066L20.0269 19.5936L21.5658 20.4807L22.5024 21.0212L23.1089 21.3677L24.6107 22.2342L24.5364 22.2796L24.5199 22.2837ZM24.6313 18.7066L23.311 17.9433L23.0882 17.8154L21.5493 16.9283L20.0104 16.0413L18.4714 15.1542L17.9763 14.8695L16.9325 14.2672L15.3936 13.3801V4.44355L16.9325 5.33061L18.4714 6.22179L19.6308 6.89017L20.0145 7.11297L21.5534 8.00002L23.0924 8.88708L24.6313 9.77414V18.7066Z" fill="#020617"/>
</svg>
